<?xml version="1.0" encoding="iso-8859-1"?>
<!-- Uploaded to: SVG Repo, www.svgrepo.com, Generator: SVG Repo Mixer Tools -->
<svg fill="#000000" height="800px" width="800px" version="1.1" id="Layer_1" xmlns="http://www.w3.org/2000/svg" xmlns:xlink="http://www.w3.org/1999/xlink" 
	 viewBox="0 0 512 512" xml:space="preserve">
<g>
	<g>
		<path d="M501.801,54.387H10.199C4.566,54.387,0,58.954,0,64.587v115.131c0,5.632,4.566,10.199,10.199,10.199h95.749v257.497
			c0,5.632,4.566,10.199,10.199,10.199h279.705c5.632,0,10.199-4.567,10.199-10.199V189.916h95.749
			c5.632,0,10.199-4.567,10.199-10.199V64.587C512,58.954,507.433,54.387,501.801,54.387z M221.786,437.213h-95.439V179.717
			c0-5.632-4.566-10.199-10.199-10.199H20.398V74.786h169.723c3.087,19.023,14.698,35.629,31.664,45.037V437.213z M269.816,113.451
			v323.763h-27.632V113.451c0-4.107-2.464-7.815-6.252-9.405c-12.718-5.337-21.846-16.278-25.016-29.26h90.167
			c-3.17,12.983-12.298,23.923-25.016,29.26C272.28,105.636,269.816,109.343,269.816,113.451z M491.602,169.518h-95.749
			c-5.632,0-10.199,4.567-10.199,10.199v257.497h-95.439V119.822c16.967-9.408,28.577-26.014,31.664-45.037h169.723V169.518z"/>
	</g>
</g>
<g>
	<g>
		<path d="M364.112,271.48c-5.632,0-10.199,4.567-10.199,10.199v12.155c0,5.632,4.567,10.199,10.199,10.199
			s10.199-4.567,10.199-10.199V281.68C374.311,276.048,369.744,271.48,364.112,271.48z"/>
	</g>
</g>
<g>
	<g>
		<path d="M364.112,314.961c-5.632,0-10.199,4.567-10.199,10.199v89.948c0,5.632,4.567,10.199,10.199,10.199
			s10.199-4.567,10.199-10.199V325.16C374.311,319.528,369.744,314.961,364.112,314.961z"/>
	</g>
</g>
</svg>